:FULLY-SPECIFIED
:FORCE-ALL-JOINTS-BE-3DOF
:DEGREES
985
root 1.1123 15.1535 32.4977 4.97869 -5.07801 3.43528
lfemur 7.75519 2.71992 4.57163
ltibia 2.09008e-14 0 0
lfoot -25.3922 -9.88544 0.00695973
ltoes -28.2404 0 0
rfemur -29.1061 -13.8887 -4.62283
rtibia 44.2785 -0 0
rfoot -19.724 5.99051 0.012089
rtoes -34.3162 0 0
lowerback -1.25721 -0.448335 0.635473
upperback -0.824918 -0.617332 -4.98232
thorax -0.219354 -0.332666 -5.53814
lowerneck -5.18394 1.17602 5.02372
upperneck 0.00419441 1.14053 2.84343
head 0.877495 0.623908 0.0756947
lclavicle -6.68771e-15 6.36111e-15 0
lhumerus -46.5511 -46.2717 98.5635
lradius 46.2841 -0 0
lwrist 20.8525 0 0
lhand 31.1224 20.9022 0.001554
lfingers 7.12502 0 0
lthumb 50.9667 32.6846 0.012482
rclavicle -6.68771e-15 6.36111e-15 0
rhumerus 3.84566 -20.3851 1.38
rradius 23.6935 -0 0
rwrist -9.97645 0 0
rhand -25.5769 -38.8771 -0.0456549
rfingers 7.12502 0 0
rthumb -3.20724 -65.5606 -0.0426418
986
root 1.11614 15.1548 32.4912 5.15353 -5.25888 3.56545
lfemur 8.05913 2.80221 4.75317
ltibia 2.02949e-14 0 0
lfoot -26.3761 -10.2512 0.0073695
ltoes -29.3434 0 0
rfemur -30.2328 -14.4101 -4.81457
rtibia 45.9006 -0 0
rfoot -20.4854 6.18898 0.0123812
rtoes -35.6444 0 0
lowerback -1.30164 -0.462426 0.658572
upperback -0.848125 -0.636388 -5.16952
thorax -0.22052 -0.342734 -5.74539
lowerneck -5.39804 1.22138 5.22504
upperneck 0.0267106 1.18215 2.95409
head 0.921017 0.647714 0.0776821
lclavicle -8.53358e-15 4.24074e-15 0
lhumerus -48.8586 -45.9562 102.402
lradius 47.9985 -0 0
lwrist 21.66 0 0
lhand 32.2975 21.6999 0.00161548
lfingers 7.12502 0 0
lthumb 52.8102 33.9306 0.013109
rclavicle -8.53358e-15 4.24074e-15 0
rhumerus 3.99567 -21.1246 1.41902
rradius 24.5959 -0 0
rwrist -10.3243 0 0
rhand -26.5338 -40.2781 -0.0482536
rfingers 7.12502 0 0
rthumb -3.30574 -67.7503 -0.0444887
987
root 1.11997 15.156 32.4846 5.45293 -5.55219 3.78637
lfemur 8.55414 2.93603 5.0474
ltibia 1.96891e-14 0 0
lfoot -27.9885 -10.8752 0.00777788
ltoes -31.1424 0 0
rfemur -32.0838 -15.2748 -5.14196
rtibia 48.5158 -0 0
rfoot -21.7328 6.51607 0.0125134
rtoes -37.8171 0 0
lowerback -1.37987 -0.48625 0.69717
upperback -0.890971 -0.668658 -5.4863
thorax -0.224557 -0.359917 -6.09603
lowerneck -5.75265 1.29322 5.55176
upperneck 0.0626662 1.24745 3.13796
head 0.992613 0.685257 0.0821279
lclavicle -1.03794e-14 2.12037e-15 0
lhumerus -52.6768 -45.2485 107.965
lradius 50.767 -0 0
lwrist 22.9954 0 0
lhand 34.2408 23.0194 0.00166392
lfingers 7.12502 0 0
lthumb 55.7801 35.9567 0.013656
rclavicle -1.03794e-14 2.12037e-15 0
rhumerus 4.24402 -22.4024 1.47256
rradius 26.0909 -0 0
rwrist -10.9291 0 0
rhand -28.1532 -42.5891 -0.0506208
rfingers 7.12502 0 0
rthumb -3.51059 -71.212 -0.0456225
988
root 1.1238 15.1573 32.4781 5.2697 -4.63928 364.088
lfemur 8.7258 1.6976 5.17712
ltibia 1.90833e-14 0 0
lfoot -30.1159 -11.6552 0
ltoes -33.9256 0 0
rfemur -32.7814 -15.5868 -6.24436
rtibia 50.6256 0 0
rfoot -22.6997 4.93313 0
rtoes -42.2585 0 0
lowerback -1.48754 -0.359459 0.669615
upperback -0.712469 -0.483304 -5.85243
thorax 0.0446671 -0.257355 -6.4557
lowerneck -6.78983 1.16834 5.82499
upperneck 1.21788 0.963487 3.35806
head 1.53935 0.590558 0.101043
lclavicle -1.22253e-14 0 0
lhumerus -58.2643 -45.1387 114.869
lradius 55.0398 0 0
lwrist 24.9687 0 0
lhand 37.2319 24.379 0
lfingers 7.12502 0 0
lthumb 60.0636 38.0924 0
rclavicle -1.22253e-14 0 0
rhumerus 3.74548 -24.7764 -0.17803
rradius 27.9644 0 0
rwrist -11.1351 0 0
rhand -31.4451 -44.4536 0
rfingers 7.12502 0 0
rthumb -4.71295 -794.381 0
989
root 1.12471 15.1576 32.4753 5.6981 -4.99115 4.41781
lfemur 9.4399 1.80279 5.62397
ltibia 1.56756e-14 0 0
lfoot -32.4943 -12.6003 5.89368e-06
ltoes -36.5766 0 0
rfemur -35.4126 -16.8674 -6.78044
rtibia 54.1999 -0 0
rfoot -24.5391 5.31083 -2.9088e-05
rtoes -45.456 0 0
lowerback -1.60349 -0.385094 0.719711
upperback -0.76733 -0.517408 -6.3394
thorax 0.0493059 -0.275522 -6.98911
lowerneck -7.37244 1.2606 6.31552
upperneck 1.33408 1.035 3.64499
head 1.67554 0.636326 0.110523
lclavicle -1.1752e-14 -9.08729e-16 0
lhumerus -63.9302 -43.7579 120.321
lradius 58.8483 -0 0
lwrist 26.9808 0 0
lhand 40.077 26.3475 -1.83233e-05
lfingers 7.12502 0 0
lthumb 64.0421 41.0079 -1.87574e-05
rclavicle -1.1752e-14 -9.08729e-16 0
rhumerus 4.06803 -26.7414 -0.189815
rradius 30.1854 -0 0
rwrist -12.0508 0 0
rhand -33.8986 -47.6957 0.000102569
rfingers 7.12502 0 0
rthumb -5.08968 -78.6929 9.4379e-05
990
root 1.12562 15.158 32.4725 6.00494 -5.24066 4.65525
lfemur 9.9544 1.87323 5.94804
ltibia 1.22678e-14 0 0
lfoot -34.1788 -13.2789 1.20557e-05
ltoes -38.446 0 0
rfemur -37.2705 -17.785 -7.17057
rtibia 56.6389 -0 0
rfoot -25.853 5.57642 -3.58922e-05
rtoes -47.683 0 0
lowerback -1.68632 -0.402983 0.755512
upperback -0.805783 -0.541112 -6.69065
thorax 0.0534724 -0.288126 -7.37352
lowerneck -7.79617 1.32674 6.67057
upperneck 1.42194 1.08566 3.85289
head 1.77576 0.669073 0.117409
lclavicle -1.12787e-14 -1.81746e-15 0
lhumerus -67.8351 -42.8055 123.496
lradius 61.4299 -0 0
lwrist 28.4154 0 0
lhand 42.0687 27.7504 -3.80481e-05
lfingers 7.12502 0 0
lthumb 66.7074 43.0474 -3.47199e-05
rclavicle -1.12787e-14 -1.81746e-15 0
rhumerus 4.30124 -28.1372 -0.201479
rradius 31.7613 -0 0
rwrist -12.7073 0 0
rhand -35.6304 -49.9307 0.000138862
rfingers 7.12502 0 0
rthumb -5.35976 -81.4858 0.000124313
991
root 1.12653 15.1583 32.4697 6.19431 -5.392 4.8034
lfemur 10.2765 1.91096 6.15289
ltibia 8.86009e-15 0 0
lfoot -35.2233 -13.7014 1.84965e-05
ltoes -39.6031 0 0
rfemur -38.4144 -18.3567 -7.41765
rtibia 58.1085 -0 0
rfoot -26.672 5.73437 -2.02122e-05
rtoes -49.0516 0 0
lowerback -1.73724 -0.413458 0.777563
upperback -0.828448 -0.554906 -6.9106
thorax 0.0571526 -0.295435 -7.61392
lowerneck -8.06581 1.36778 6.89442
upperneck 1.48195 1.1163 3.98406
head 1.8409 0.689267 0.121756
lclavicle -1.08054e-14 -2.72619e-15 0
lhumerus -70.1995 -42.2395 125.236
lradius 62.9829 -0 0
lwrist 29.3092 0 0
lhand 43.292 28.6227 -5.89781e-05
lfingers 7.12502 0 0
lthumb 68.2962 44.3002 -4.8241e-05
rclavicle -1.08054e-14 -2.72619e-15 0
rhumerus 4.44537 -29.0002 -0.212944
rradius 32.7383 -0 0
rwrist -13.1145 0 0
rhand -36.6996 -51.2837 0.00011742
rfingers 7.12502 0 0
rthumb -5.52693 -83.1098 0.000103089
